# xmcd CD database file
#
# Track frame offsets:
#	150
#	14377
#	22676
#	33220
#	46665
#	54172
#	69686
#	81178
#	92997
#	100114
#	114387
#	129250
#	143836
#	152213
#	165904
#	175338
#	189569
#	204999
#	222614
#	233782
#
# Disc length: 3308 seconds
#
# Revision: 2
# Processed by: cddbd v1.5.1PL2 Copyright (c) Steve Scherf et al.
# Submitted via: CDex 1.51
#
DISCID=fd0cea14
DTITLE=Various Artist - Country Gold 7
DYEAR=1900
DGENRE=
TTITLE0=Conway Twitty - Fifteen Years Ago
TTITLE1=Freddy Fender - Just A Little Bit
TTITLE2=Tammy Wynette - Womanhood
TTITLE3=Porter Wagoner - Love With Feeling
TTITLE4=Ralph Stanley - Let's Keep Old Glory Waving
TTITLE5=George Jones - He Stopped Loving Her Today
TTITLE6=Gail Davies - It's A Lovely Lovely World
TTITLE7=Jackson Stonewall - My Hands In Muddy Waters
TTITLE8=Danny Davis and The Nashville Brass - Down Yonder
TTITLE9=Don Williams - My Womans Love
TTITLE10=Frankie Laine - Jezabel
TTITLE11=Kitty Wells - One By One
TTITLE12=Rex Allen Senior - Great Balls Of Fire
TTITLE13=T.G. Sheppard - War Is Hell
TTITLE14=Willie Nelson - Healing Hands Of Time
TTITLE15=Tex Ritter - The Texas Rangers
TTITLE16=Terri Gibbs - We're Living A Lie
TTITLE17=Bertie Higgins - Just Another Day In Paradise
TTITLE18=Bob Wills - Let's Get It Over and Done With
TTITLE19=Frankie Laine - Jealousy
EXTD=
EXTT0=
EXTT1=
EXTT2=
EXTT3=
EXTT4=
EXTT5=
EXTT6=
EXTT7=
EXTT8=
EXTT9=
EXTT10=
EXTT11=
EXTT12=
EXTT13=
EXTT14=
EXTT15=
EXTT16=
EXTT17=
EXTT18=
EXTT19=
PLAYORDER=
